{"title":"Necessary Roughness (1991) 720p AC3 (5.1) HDTV","uid":8718275,"size":2742034552,"categoryP":"video","categoryS":"hd___movies","magnet":"?xt=urn:btih:0e33c4c1d23b8d33f530e1d3912cc53309e20bf9&amp;dn=Necessary+Roughness+%281991%29+720p+AC3+%285.1%29+HDTV&amp;tr=udp%3A%2F%2Ftracker.openbittorrent.com%3A80&amp;tr=udp%3A%2F%2Fopen.demonii.com%3A1337&amp;tr=udp%3A%2F%2Ftracker.coppersurfer.tk%3A6969&amp;tr=udp%3A%2F%2Fexodus.desync.com%3A6969","seeders":2,"leechers":3,"uploader":"nabsltd","files":2,"time":1374369610,"description":"This is my own rip.\n\nThere is a small logo for 20 seconds every 30 minutes.\n\nGeneral\nUnique ID                        : 250611398854726437676223130194396280145 (0xBC89FFEF590FC0C58EE542A7D8D77551)\nFormat                           : Matroska\nFormat version                   : Version 4 / Version 2\nFile size                        : 2.52 GiB\nDuration                         : 1h 48mn\nOverall bit rate mode            : Variable\nOverall bit rate                 : 3 338 Kbps\nEncoded date                     : UTC 2013-07-20 19:49:38\nWriting application              : mkvmerge v6.1.0 ('Old Devil') built on Mar  2 2013 14:32:37\nWriting library                  : libebml v1.3.0 + libmatroska v1.4.0\n\nVideo\nID                               : 1\nFormat                           : AVC\nFormat/Info                      : Advanced Video Codec\nFormat profile                   : &lt;a class=&quot;__cf_email__&quot; href=&quot;/cdn-cgi/l/email-protection&quot; data-cfemail=&quot;f0b8999798b0bcc4dec1&quot;&gt;[email&amp;#160;protected]&lt;/a&gt;&lt;script cf-hash='f9e31' type=&quot;text/javascript&quot;&gt;\n/* &lt;![CDATA[ */!function(){try{var t=&quot;currentScript&quot;in document?document.currentScript:function(){for(var t=document.getElementsByTagName(&quot;script&quot;),e=t.length;e--;)if(t[e].getAttribute(&quot;cf-hash&quot;))return t[e]}();if(t&amp;&amp;t.previousSibling){var e,r,n,i,c=t.previousSibling,a=c.getAttribute(&quot;data-cfemail&quot;);if(a){for(e=&quot;&quot;,r=parseInt(a.substr(0,2),16),n=2;a.length-n;n+=2)i=parseInt(a.substr(n,2),16)^r,e+=String.fromCharCode(i);e=document.createTextNode(e),c.parentNode.replaceChild(e,c)}}}catch(u){}}();/* ]]&gt; */&lt;/script&gt;\nFormat settings, CABAC           : Yes\nFormat settings, ReFrames        : 7 frames\nCodec ID                         : V_MPEG4/ISO/AVC\nDuration                         : 1h 48mn\nBit rate mode                    : Variable\nBit rate                         : 2 887 Kbps\nMaximum bit rate                 : 13.0 Mbps\nWidth                            : 1 280 pixels\nHeight                           : 692 pixels\nDisplay aspect ratio             : 1.850\nFrame rate                       : 23.976 fps\nColor space                      : YUV\nChroma subsampling               : 4:2:0\nBit depth                        : 8 bits\nScan type                        : Progressive\nBits/(Pixel*Frame)               : 0.136\nStream size                      : 2.18 GiB (87%)\nWriting library                  : x264 core 129 r2245 bc13772\nLanguage                         : English\nDefault                          : Yes\nForced                           : No\n\nAudio\nID                               : 2\nFormat                           : AC-3\nFormat/Info                      : Audio Coding 3\nMode extension                   : CM (complete main)\nCodec ID                         : A_AC3\nDuration                         : 1h 48mn\nBit rate mode                    : Constant\nBit rate                         : 384 Kbps\nChannel(s)                       : 6 channels\nChannel positions                : Front: L C R, Side: L R, LFE\nSampling rate                    : 48.0 KHz\nBit depth                        : 16 bits\nCompression mode                 : Lossy\nStream size                      : 297 MiB (12%)\nLanguage                         : English\nDefault                          : Yes\nForced                           : No\n\nMenu\n00:00:00.000                     : Warm Up\n00:06:47.782                     : Tryouts\n00:13:23.678                     : New Recruit\n00:18:22.184                     : Bad Reception\n00:26:23.373                     : Eligibility\n00:35:59.783                     : Opening Game\n00:44:22.618                     : Scrimmage\n00:57:16.600                     : New Kicker\n01:04:36.061                     : Showers\n01:11:32.079                     : Pass or Fail\n01:20:35.269                     : Playbook\n01:30:00.854                     : Pep Talk\n01:34:28.246                     : Fumblaya\n01:40:44.789                     : Extra Point\n01:44:21.297                     : Line-Up\n","torrent":{"xt":"urn:btih:0e33c4c1d23b8d33f530e1d3912cc53309e20bf9","amp;dn":"Necessary+Roughness+%281991%29+720p+AC3+%285.1%29+HDTV","amp;tr":["udp%3A%2F%2Ftracker.openbittorrent.com%3A80","udp%3A%2F%2Fopen.demonii.com%3A1337","udp%3A%2F%2Ftracker.coppersurfer.tk%3A6969","udp%3A%2F%2Fexodus.desync.com%3A6969"],"infoHash":"0e33c4c1d23b8d33f530e1d3912cc53309e20bf9","infoHashBuffer":{"type":"Buffer","data":[14,51,196,193,210,59,141,51,245,48,225,211,145,44,197,51,9,226,11,249]},"announce":[],"urlList":[]}}